<?xml version="1.0" encoding="utf-8"?>
<!-- Generator: Adobe Illustrator 21.0.0, SVG Export Plug-In . SVG Version: 6.00 Build 0)  -->
<svg version="1.1" id="Layer_1" xmlns="http://www.w3.org/2000/svg" xmlns:xlink="http://www.w3.org/1999/xlink" x="0px" y="0px"
	 viewBox="0 0 171 183" style="enable-background:new 0 0 171 183;" xml:space="preserve">
<style type="text/css">
	.st0{fill:#FFFFFF;}
</style>
<title>phone-with-headphones</title>
<path d="M113.7,48.5H59c-3.3,0-6,2.7-6,6v109.2c0,3.3,2.7,6,6,6h54.7c3.3,0,6-2.7,6-6V54.5C119.7,51.2,117,48.5,113.7,48.5z
	 M75.3,53.1c0-0.6,0.4-1,1-1h20.1c0.6,0,1,0.4,1,1v1.6c0,0.6-0.4,1-1,1H76.3c-0.6,0-1-0.4-1-1V53.1z M96.8,163.1c0,0.6-0.4,1-1,1H77
	c-0.6,0-1-0.4-1-1v-2.2c0-0.6,0.4-1,1-1h18.8c0.6,0,1,0.4,1,1V163.1z M116.6,155.3H56.2c-0.6,0-1-0.4-1-1V59.5c0-0.6,0.4-1,1-1h60.4
	c0.6,0,1,0.4,1,1v94.8C117.6,154.9,117.2,155.3,116.6,155.3z"/>
<path d="M138.2,135.4L138.2,135.4c-3.4,0-6.2-2.8-6.2-6.2V87c0-3.4,2.8-6.2,6.2-6.2l0,0c3.4,0,6.2,2.8,6.2,6.2v42.2
	C144.4,132.6,141.6,135.4,138.2,135.4z"/>
<path d="M145.6,87.5h2.2v22.3h6.9V89.3c2.2,1.7,3.5,4.3,3.5,7.1v23.4c0,5-4,9-9,9h-3.9V87.5H145.6z"/>
<path d="M146.9,74.8h6c0.3,0,0.6,0.3,0.6,0.6v33.3H149V86.1h-2c-0.3,0-0.6-0.3-0.6-0.6v-10C146.4,75.2,146.6,74.9,146.9,74.8z"/>
<path d="M34.5,80.8L34.5,80.8c3.4,0,6.2,2.8,6.2,6.2v42.2c0,3.4-2.8,6.2-6.2,6.2l0,0c-3.4,0-6.2-2.8-6.2-6.2V87
	C28.3,83.6,31.1,80.8,34.5,80.8z"/>
<path d="M27,87.5h-2.2v22.3h-6.9V89.3c-2.2,1.7-3.5,4.3-3.5,7.1v23.4c0,5,4,9,9,9h3.9V87.5H27z"/>
<path d="M25.7,74.8h-6c-0.3,0-0.6,0.3-0.6,0.6l0,0v33.3h4.6V86.1h2c0.3,0,0.6-0.3,0.6-0.6l0,0v-10C26.3,75.2,26.1,74.9,25.7,74.8
	C25.7,74.9,25.7,74.9,25.7,74.8z"/>
<path d="M149,80.9c-0.3-1.3-0.4-2.7-0.4-4c0-7.5-1.4-14.9-4-21.9c-0.5-1.4,0.6-2.7,1.6-3.9C136,27.2,112.4,11.7,86.4,11.7h-0.1l0,0
	l0,0c-26,0-49.6,15.5-59.9,39.4c1.1,1.3,2.2,2.6,1.6,3.9c-2.6,7-4,14.4-4,21.8c0,1.3-0.1,2.7-0.4,4h2.8c-0.1-1.3-0.1-2.6-0.1-4
	c0-33.1,26.9-60,60-60h0.2c33.1,0,60,26.9,60,60c0,1.4,0,2.7-0.1,4L149,80.9L149,80.9z"/>
<path class="st0" d="M116.6,155.3H56.2c-0.6,0-1-0.4-1-1V59.5c0-0.6,0.4-1,1-1h60.4c0.6,0,1,0.4,1,1v94.8
	C117.6,154.9,117.2,155.3,116.6,155.3z"/>
</svg>
