<?xml version="1.0" encoding="utf-8"?>
<!-- Generator: Adobe Illustrator 21.0.0, SVG Export Plug-In . SVG Version: 6.00 Build 0)  -->
<svg version="1.1" id="Layer_1" xmlns="http://www.w3.org/2000/svg" xmlns:xlink="http://www.w3.org/1999/xlink" x="0px" y="0px"
	 viewBox="0 0 523.7 240" style="enable-background:new 0 0 523.7 240;" xml:space="preserve">
<style type="text/css">
	.st0{fill:#FFFFFF;}
</style>
<title>Artboard 1</title>
<path class="st0" d="M1.2,131.1V40.2h56v90.2c0,20.5,10.6,29.2,25.4,29.2s25.4-8,25.4-28V40.2h56v89.7c0,56.3-32.7,78.4-82,78.4
	S1.2,185.7,1.2,131.1z"/>
<path class="st0" d="M169.9,76.4h53.5v17.9c8.2-10.6,21.2-21,39.3-21c27.1,0,44,17.9,44,46.9v84.2h-53.4v-67
	c0-11.1-6.6-17.4-14.6-17.4s-15.3,6.4-15.3,17.4v67.1h-53.5V76.4z"/>
<path class="st0" d="M339.3,133c-9.6,0-18.9-3.4-26.3-9.6v81.1h53.5v-81.9C359,129.3,349.4,133,339.3,133z"/>
<circle class="st0" cx="339.3" cy="92" r="26.7"/>
<path class="st0" d="M82.7,213.7h9c9.3,0,14,4.6,14,11.5v0.1c0,6.9-4.8,11.9-14.2,11.9h-8.8V213.7z M91.8,230.3
	c3.6,0,5.9-1.5,5.9-4.9v-0.1c0-3.4-2.3-4.9-5.9-4.9h-1.3v9.8L91.8,230.3z"/>
<path class="st0" d="M109.2,213.7h20v6.4h-12.3v2.4h11.5v5.7h-11.5v2.6h12.5v6.4h-20.2V213.7z"/>
<path class="st0" d="M130.9,233.6l4.2-5c2.4,1.8,5.2,2.8,8.2,2.8c1.4,0,2-0.4,2-1v-0.1c0-0.7-0.7-1-3.2-1.5
	c-5.3-1.1-9.9-2.6-9.9-7.5v-0.1c0-4.5,3.5-7.9,10-7.9c4.5,0,7.9,1.1,10.6,3.2l-3.8,5.3c-2-1.5-4.5-2.3-7-2.3c-1.2,0-1.7,0.4-1.7,1
	v0.1c0,0.6,0.6,1,3.1,1.5c6,1.1,10,2.9,10,7.6v0.1c0,4.9-4.1,7.9-10.4,7.9C138.2,237.6,133.9,236.2,130.9,233.6z"/>
<path class="st0" d="M155.9,225.5L155.9,225.5c-0.1-6.8,5.3-12.2,12-12.3c0.1,0,0.3,0,0.4,0c4.4-0.2,8.6,2.2,10.6,6.1l-6.5,3.8
	c-0.7-1.7-2.4-2.9-4.3-2.9c-2.6,0-4.4,2.3-4.4,5.1v0.1c0,3.1,1.8,5.2,4.4,5.2c2.2,0,3.4-1.2,4.4-2.9l6.5,3.6
	c-3.4,6-10.9,8.1-16.9,4.7C158.4,233.9,156,229.9,155.9,225.5L155.9,225.5z"/>
<path class="st0" d="M182.1,213.7h11.5c4.2,0,6.8,1,8.4,2.7c1.5,1.5,2.2,3.5,2.1,5.6v0.1c0.1,3.1-1.8,6-4.6,7.2l5.5,8h-9l-4.4-6.7
	h-1.7v6.7H182L182.1,213.7z M193.3,224.8c1.9,0,3-0.8,3-2.3v-0.1c0-1.5-1.2-2.2-3-2.2h-3.4v4.6L193.3,224.8z"/>
<path class="st0" d="M207.5,213.7h7.8v23.5h-7.8V213.7z"/>
<path class="st0" d="M219.4,213.7H230c6.2,0,10.5,2.8,10.5,8.4v0.1c0,5.7-4.3,8.7-10.7,8.7h-2.6v6.4h-7.8V213.7z M229.4,225.2
	c2,0,3.4-0.9,3.4-2.6v-0.1c0-1.7-1.2-2.6-3.3-2.6h-2.1v5.2L229.4,225.2z"/>
<path class="st0" d="M249.5,220.3h-6.9v-6.6h21.7v6.6h-6.9v16.8h-7.8L249.5,220.3z"/>
<path class="st0" d="M267.5,213.7h7.8v23.5h-7.8V213.7z"/>
<path class="st0" d="M278.9,225.5L278.9,225.5c0-6.9,5.6-12.3,12.8-12.3s12.8,5.4,12.8,12.2v0.1c0,6.8-5.6,12.2-12.8,12.2
	S278.9,232.3,278.9,225.5z M296.6,225.5L296.6,225.5c0.2-2.8-1.9-5.2-4.7-5.4c-0.1,0-0.2,0-0.2,0c-2.8,0.1-4.9,2.4-4.9,5.1
	c0,0,0,0.1,0,0.1v0.1c-0.2,2.8,1.9,5.1,4.7,5.3c0.1,0,0.2,0,0.2,0C294.5,230.6,296.7,228.3,296.6,225.5
	C296.6,225.5,296.6,225.5,296.6,225.5z"/>
<path class="st0" d="M308,213.7h7.3l8.4,10.3v-10.3h7.8v23.5h-7l-8.7-10.8v10.8H308L308,213.7z"/>
<path class="st0" d="M387.9,78.7c11.6-19.7,36.9-17.2,51-1.5c13.6,15.1,4.7,36.5-7.9,49.1c-2.3,2-5.5,2.4-8.2,1.1
	c-7.5-4.3-16.4-4.3-21.7,3.4s-2.9,17.3,3,23.7c2,2.2-0.4,4.8-2.4,5.6c-2.8,1-6,0.3-8.1-1.9c-9-9.8-10-24.8-0.5-34.6
	c9.3-9.6,25-9.4,36.1-3l-8.1,1c8.6-8.7,17.2-23.5,11-35.7c-3.9-7.6-14.7-15.9-23.5-12.3c-2.7,1.2-5.1,3-7,5.2
	c-0.8,0.9-1.6,1.8-2.2,2.8C396.5,86.1,384.9,83.8,387.9,78.7L387.9,78.7z"/>
<path class="st0" d="M425.1,77.3c0,0,13.3,11.1,0.6,23.1c-14.6,13.8-24,17.4-24,17.4l24.9,5.4l12-19.9l-1.2-23.9L425.1,77.3z"/>
<path class="st0" d="M335.3,219.3c0,0,14.3,17.3,38.3,18.3s42-29.6,42-29.6s105,8.3,105-100S411.7,5.2,411.7,5.2H169.9V51h242.2
	c0,0,62.9,0,62.9,58.9c0,60.1-58.9,58.4-58.9,58.4h-27.4c0,0,12,24.7-6,44.8S335.3,219.3,335.3,219.3z"/>
</svg>
