<svg xmlns="http://www.w3.org/2000/svg" viewBox="0 0 523.67 240"><title>Artboard 1</title><path d="M1.21,131.08V40.18H57.26v90.2c0,20.49,10.6,29.2,25.43,29.2s25.43-8,25.43-28V40.18h56.05V129.9c0,56.29-32.74,78.42-82,78.42S1.21,185.72,1.21,131.08Z" style="fill:#999"/><path d="M169.9,76.44h53.46v17.9c8.24-10.6,21.2-21,39.33-21,27.08,0,44,17.9,44,46.87v84.19H253.27v-67c0-11.07-6.59-17.43-14.6-17.43s-15.31,6.36-15.31,17.43v67.07H169.9Z" style="fill:#999"/><path d="M339.34,133a40.8,40.8,0,0,1-26.3-9.58v81.1H366.5V122.66A40.82,40.82,0,0,1,339.34,133Z" style="fill:#999"/><circle cx="339.34" cy="91.99" r="26.69" style="fill:#999"/><path d="M82.69,213.67h9c9.32,0,14,4.59,14,11.53v.07c0,6.94-4.76,11.87-14.25,11.87H82.69Zm9.15,16.63c3.59,0,5.9-1.47,5.9-4.86v-.07c0-3.39-2.31-4.86-5.9-4.86H90.54v9.79Z" style="fill:#5c7330"/><path d="M109.17,213.67h20v6.44h-12.3v2.38h11.46v5.67H116.88v2.55h12.47v6.44H109.17Z" style="fill:#5c7330"/><path d="M130.89,233.62l4.19-5a13.45,13.45,0,0,0,8.21,2.75c1.41,0,2-.37,2-1v-.07c0-.67-.74-1-3.25-1.54-5.26-1.07-9.89-2.58-9.89-7.54v-.07c0-4.46,3.49-7.91,10-7.91,4.53,0,7.88,1.07,10.59,3.22l-3.82,5.3a12.3,12.3,0,0,0-7-2.31c-1.17,0-1.71.4-1.71,1v.07c0,.64.64,1,3.12,1.51,6,1.11,10,2.85,10,7.58v.07c0,4.93-4.06,7.94-10.36,7.94C138.16,237.57,133.87,236.23,130.89,233.62Z" style="fill:#5c7330"/><path d="M155.93,225.47v-.07a12.13,12.13,0,0,1,12.47-12.23,11.51,11.51,0,0,1,10.63,6.1l-6.47,3.79a4.55,4.55,0,0,0-4.26-2.85c-2.65,0-4.39,2.31-4.39,5.13v.07c0,3.05,1.81,5.2,4.39,5.2,2.21,0,3.45-1.21,4.42-2.95l6.47,3.65a12.43,12.43,0,0,1-23.26-5.83Z" style="fill:#5c7330"/><path d="M182.07,213.67h11.46c4.16,0,6.8,1,8.45,2.68a7.37,7.37,0,0,1,2.15,5.56V222a7.59,7.59,0,0,1-4.63,7.17l5.46,8h-9l-4.42-6.7h-1.68v6.7h-7.84Zm11.23,11.16c1.88,0,3-.84,3-2.28v-.07c0-1.51-1.17-2.25-3-2.25h-3.42v4.59Z" style="fill:#5c7330"/><path d="M207.47,213.67h7.84v23.46h-7.84Z" style="fill:#5c7330"/><path d="M219.44,213.67H230c6.24,0,10.49,2.78,10.49,8.35v.07c0,5.66-4.32,8.68-10.66,8.68h-2.55v6.37h-7.84Zm10,11.5c2,0,3.35-.91,3.35-2.58v-.07c0-1.71-1.24-2.58-3.32-2.58h-2.15v5.23Z" style="fill:#5c7330"/><path d="M249.54,220.31h-6.91v-6.64h21.65v6.64h-6.91v16.83h-7.84Z" style="fill:#5c7330"/><path d="M267.5,213.67h7.84v23.46H267.5Z" style="fill:#5c7330"/><path d="M278.93,225.47v-.07c0-6.8,5.6-12.23,12.84-12.23s12.77,5.36,12.77,12.17v.07c0,6.8-5.6,12.23-12.84,12.23S278.93,232.28,278.93,225.47Zm17.7,0v-.07a5,5,0,0,0-4.93-5.3,5,5,0,0,0-4.86,5.23v.07a5,5,0,0,0,4.93,5.3A5,5,0,0,0,296.63,225.47Z" style="fill:#5c7330"/><path d="M308.05,213.67h7.34L323.74,224V213.67h7.78v23.46h-7l-8.71-10.83v10.83h-7.78Z" style="fill:#5c7330"/><path d="M387.88,78.68c11.63-19.65,36.88-17.19,51-1.53,13.63,15.08,4.68,36.45-7.88,49.07a7.4,7.4,0,0,1-8.23,1.07c-7.49-4.3-16.35-4.29-21.68,3.36s-2.89,17.27,3,23.71c2,2.17-.36,4.82-2.44,5.61a7.53,7.53,0,0,1-8.07-1.94c-9-9.79-10-24.8-.54-34.61,9.27-9.58,25-9.41,36.1-3L421,121.44c8.63-8.66,17.2-23.54,11-35.67-3.85-7.56-14.72-15.87-23.53-12.3a19.53,19.53,0,0,0-7,5.2,20.23,20.23,0,0,0-2.25,2.85c-2.72,4.59-14.37,2.23-11.36-2.84Z" style="fill:#5c7330"/><path d="M425.13,77.28s13.3,11.14.63,23.08c-14.62,13.79-24.05,17.38-24.05,17.38l24.94,5.41,12-19.92L437.44,79.3Z" style="fill:#5c7330"/><path d="M335.33,219.33s14.33,17.31,38.33,18.31,42-29.64,42-29.64,105,8.33,105-100-109-102.82-109-102.82H169.9V51H412.09S475,51,475,109.9c0,60.1-58.9,58.44-58.9,58.44H388.67s12,24.68-6,44.84S335.33,219.33,335.33,219.33Z" style="fill:#999"/></svg>